<svg width="1208" height="308" viewBox="0 0 1208 308" fill="none" xmlns="http://www.w3.org/2000/svg">
<g filter="url(#filter0_d)">
<rect x="4" width="1200" height="300" fill="#5636D3"/>
</g>
<path opacity="0.95" d="M1092 0C1057.5 133 780 293 505 300H1204V0H1092Z" fill="#FF872C" fill-opacity="0.5"/>
<path opacity="0.95" d="M1204 0C1177.5 198.5 902 300 505 300H1204V0Z" fill="#FF872C"/>
<path fill-rule="evenodd" clip-rule="evenodd" d="M149.059 125.925C149.573 126.611 150.015 127.35 150.375 128.135C171.646 133.522 187.304 151.348 187.304 172.452C187.304 197.808 164.7 218.438 136.917 218.438C122.411 218.438 109.32 212.813 100.119 203.83H65.1877C57.6699 203.83 51.5534 198.248 51.5534 191.387C51.5534 187.446 53.573 183.93 56.7151 181.649C53.573 179.367 51.5534 175.851 51.5534 171.91C51.5534 167.97 53.573 164.454 56.7151 162.172C53.573 159.891 51.5534 156.375 51.5534 152.435C51.5534 148.494 53.573 144.978 56.7151 142.696C53.573 140.415 51.5534 136.899 51.5534 132.958C51.5534 126.097 57.6699 120.515 65.1877 120.515H72.9178C71.4086 118.513 70.5229 116.09 70.5229 113.482C70.5229 110.873 71.4088 108.451 72.9178 106.449H49.1822C41.6643 106.449 35.5479 100.867 35.5479 94.0057C35.5479 87.1446 41.6643 81.5625 49.1822 81.5625H121.8C129.318 81.5625 135.434 87.1446 135.434 94.0057C135.434 96.6141 134.548 99.0365 133.039 101.039H156.775C164.293 101.039 170.409 106.621 170.409 113.482C170.409 120.343 164.293 125.925 156.775 125.925H149.059ZM164.481 113.482C164.481 109.604 161.025 106.449 156.775 106.449H84.1573C79.9078 106.449 76.4509 109.604 76.4509 113.482C76.4509 117.36 79.9078 120.515 84.1573 120.515H137.805H156.775C161.025 120.515 164.481 117.36 164.481 113.482ZM41.4758 94.0057C41.4758 97.8836 44.9327 101.039 49.1822 101.039H121.8C126.049 101.039 129.506 97.8836 129.506 94.0057C129.506 90.1277 126.049 86.9726 121.8 86.9726H49.1822C44.9327 86.9726 41.4758 90.1277 41.4758 94.0057ZM137.805 125.925H65.1877C60.9385 125.925 57.4814 129.08 57.4814 132.958C57.4814 136.836 60.9385 139.991 65.1877 139.991H101.26C110.387 131.641 123.002 126.466 136.917 126.466C138.349 126.466 139.766 126.524 141.168 126.632C140.143 126.178 138.999 125.925 137.805 125.925ZM96.1955 145.401H65.1877C60.9383 145.401 57.4814 148.556 57.4814 152.435C57.4814 156.313 60.9383 159.468 65.1877 159.468H88.5769C90.2292 154.354 92.8306 149.609 96.1955 145.401ZM87.2162 164.877H65.1877C60.9383 164.877 57.4814 168.032 57.4814 171.91C57.4814 175.789 60.9383 178.944 65.1877 178.944H87.0334C86.7032 176.822 86.5286 174.655 86.5286 172.452C86.5286 169.872 86.7664 167.343 87.2162 164.877ZM57.4814 191.387C57.4814 195.265 60.9383 198.42 65.1877 198.42H95.3551C92.1684 194.186 89.7389 189.443 88.2436 184.354H65.1877C60.9383 184.354 57.4814 187.509 57.4814 191.387ZM92.4567 172.452C92.4567 194.825 112.401 213.027 136.917 213.027C161.432 213.027 181.376 194.825 181.376 172.452C181.376 150.078 161.432 131.876 136.917 131.876C112.401 131.876 92.4567 150.078 92.4567 172.452ZM129.356 163.206C129.356 166.493 132.741 169.167 136.902 169.167C144.846 169.167 151.309 174.649 151.309 181.389C151.309 187.126 146.626 191.949 140.333 193.258V194.61C140.333 196.339 138.796 197.741 136.902 197.741C135.008 197.741 133.472 196.339 133.472 194.61V193.258C127.179 191.949 122.496 187.126 122.496 181.389C122.496 179.66 124.032 178.258 125.926 178.258C127.82 178.258 129.356 179.66 129.356 181.389C129.356 184.676 132.741 187.35 136.902 187.35C141.063 187.35 144.448 184.676 144.448 181.389C144.448 178.102 141.063 175.428 136.902 175.428C128.958 175.428 122.496 169.945 122.496 163.206C122.496 157.469 127.179 152.646 133.472 151.337V149.708C133.472 147.98 135.008 146.578 136.902 146.578C138.796 146.578 140.333 147.98 140.333 149.708V151.337C146.626 152.646 151.309 157.469 151.309 163.206C151.309 164.934 149.773 166.336 147.879 166.336C145.985 166.336 144.448 164.934 144.448 163.206C144.448 159.919 141.063 157.245 136.902 157.245C132.741 157.245 129.356 159.919 129.356 163.206Z" fill="#FF872C"/>
<path d="M150.375 128.135L149.343 128.612L149.57 129.107L150.097 129.241L150.375 128.135ZM149.059 125.925V124.784H146.78L148.15 126.611L149.059 125.925ZM100.119 203.83L100.911 203.013L100.58 202.69H100.119V203.83ZM56.7152 181.649L57.3818 182.573L58.6544 181.649L57.3818 180.725L56.7152 181.649ZM56.7152 162.172L57.3818 163.097L58.6544 162.172L57.3818 161.248L56.7152 162.172ZM56.7152 142.696L57.3818 143.62L58.6544 142.696L57.3818 141.772L56.7152 142.696ZM72.9178 120.515V121.656H75.203L73.8247 119.827L72.9178 120.515ZM72.9178 106.449L73.8248 107.137L75.2028 105.308H72.9178V106.449ZM133.039 101.039L132.132 100.351L130.754 102.179H133.039V101.039ZM101.26 139.991V141.132H101.701L102.026 140.834L101.26 139.991ZM141.168 126.632L141.082 127.769L141.627 125.588L141.168 126.632ZM96.1956 145.401L97.0824 146.115L98.5655 144.261H96.1956V145.401ZM88.577 159.468V160.608H89.4038L89.6589 159.819L88.577 159.468ZM87.2162 164.877L88.3346 165.083L88.5801 163.737H87.2162V164.877ZM87.0334 178.944V180.084H88.3614L88.1567 178.768L87.0334 178.944ZM95.3551 198.42V199.561H97.6377L96.2624 197.733L95.3551 198.42ZM88.2436 184.354L89.3342 184.031L89.0936 183.213H88.2436V184.354ZM140.333 193.258L140.102 192.141L139.196 192.33V193.258H140.333ZM133.472 193.258H134.609V192.33L133.703 192.141L133.472 193.258ZM133.472 151.337L133.703 152.454L134.609 152.265V151.337H133.472ZM140.333 151.337H139.196V152.265L140.102 152.454L140.333 151.337ZM151.408 127.657C151.013 126.798 150.529 125.989 149.967 125.239L148.15 126.611C148.616 127.233 149.016 127.902 149.343 128.612L151.408 127.657ZM188.441 172.452C188.441 150.746 172.348 132.523 150.654 127.029L150.097 129.241C170.943 134.52 186.167 151.95 186.167 172.452H188.441ZM136.917 219.578C165.225 219.578 188.441 198.538 188.441 172.452H186.167C186.167 197.079 164.176 217.297 136.917 217.297V219.578ZM99.3254 204.647C108.742 213.839 122.118 219.578 136.917 219.578V217.297C122.705 217.297 109.899 211.786 100.911 203.013L99.3254 204.647ZM65.1878 204.971H100.119V202.69H65.1878V204.971ZM50.4164 191.387C50.4164 198.977 57.1456 204.971 65.1878 204.971V202.69C58.1942 202.69 52.6904 197.519 52.6904 191.387H50.4164ZM56.0486 180.725C52.6474 183.194 50.4164 187.038 50.4164 191.387H52.6904C52.6904 187.855 54.4987 184.666 57.3818 182.573L56.0486 180.725ZM50.4164 171.91C50.4164 176.26 52.6474 180.103 56.0486 182.573L57.3818 180.725C54.4987 178.632 52.6904 175.442 52.6904 171.91H50.4164ZM56.0486 161.248C52.6474 163.718 50.4164 167.562 50.4164 171.91H52.6904C52.6904 168.379 54.4987 165.19 57.3818 163.097L56.0486 161.248ZM50.4164 152.435C50.4164 156.784 52.6474 160.627 56.0486 163.097L57.3818 161.248C54.4987 159.155 52.6904 155.966 52.6904 152.435H50.4164ZM56.0486 141.772C52.6474 144.242 50.4164 148.085 50.4164 152.435H52.6904C52.6904 148.903 54.4987 145.714 57.3818 143.62L56.0486 141.772ZM50.4164 132.958C50.4164 137.307 52.6474 141.151 56.0486 143.62L57.3818 141.772C54.4987 139.679 52.6904 136.49 52.6904 132.958H50.4164ZM65.1878 119.374C57.1456 119.374 50.4164 125.368 50.4164 132.958H52.6904C52.6904 126.826 58.1942 121.656 65.1878 121.656V119.374ZM72.9178 119.374H65.1878V121.656H72.9178V119.374ZM69.3859 113.482C69.3859 116.356 70.3634 119.017 72.0109 121.203L73.8247 119.827C72.4537 118.008 71.6599 115.824 71.6599 113.482H69.3859ZM72.0109 105.761C70.3637 107.947 69.3859 110.607 69.3859 113.482H71.6599C71.6599 111.14 72.454 108.956 73.8248 107.137L72.0109 105.761ZM49.1822 107.589H72.9178V105.308H49.1822V107.589ZM34.4109 94.0057C34.4109 101.596 41.1401 107.589 49.1822 107.589V105.308C42.1886 105.308 36.6848 100.138 36.6848 94.0057H34.4109ZM49.1822 80.4219C41.1401 80.4219 34.4109 86.4155 34.4109 94.0057H36.6848C36.6848 87.8737 42.1886 82.7031 49.1822 82.7031V80.4219ZM121.8 80.4219H49.1822V82.7031H121.8V80.4219ZM136.571 94.0057C136.571 86.4155 129.842 80.4219 121.8 80.4219V82.7031C128.793 82.7031 134.297 87.8737 134.297 94.0057H136.571ZM133.946 101.727C135.593 99.541 136.571 96.8802 136.571 94.0057H134.297C134.297 96.348 133.503 98.5319 132.132 100.351L133.946 101.727ZM156.775 99.8981H133.039V102.179H156.775V99.8981ZM171.546 113.482C171.546 105.892 164.817 99.8981 156.775 99.8981V102.179C163.768 102.179 169.272 107.35 169.272 113.482H171.546ZM156.775 127.066C164.817 127.066 171.546 121.072 171.546 113.482H169.272C169.272 119.614 163.768 124.784 156.775 124.784V127.066ZM149.059 127.066H156.775V124.784H149.059V127.066ZM156.775 107.589C160.5 107.589 163.344 110.333 163.344 113.482H165.618C165.618 108.875 161.549 105.308 156.775 105.308V107.589ZM84.1573 107.589H156.775V105.308H84.1573V107.589ZM77.5879 113.482C77.5879 110.333 80.4322 107.589 84.1573 107.589V105.308C79.3834 105.308 75.3139 108.875 75.3139 113.482H77.5879ZM84.1573 119.374C80.4322 119.374 77.5879 116.631 77.5879 113.482H75.3139C75.3139 118.089 79.3834 121.656 84.1573 121.656V119.374ZM137.805 119.374H84.1573V121.656H137.805V119.374ZM156.775 119.374H137.805V121.656H156.775V119.374ZM163.344 113.482C163.344 116.631 160.5 119.374 156.775 119.374V121.656C161.549 121.656 165.618 118.089 165.618 113.482H163.344ZM49.1822 99.8981C45.457 99.8981 42.6128 97.1545 42.6128 94.0057H40.3389C40.3389 98.6127 44.4084 102.179 49.1822 102.179V99.8981ZM121.8 99.8981H49.1822V102.179H121.8V99.8981ZM128.369 94.0057C128.369 97.1545 125.525 99.8981 121.8 99.8981V102.179C126.574 102.179 130.643 98.6127 130.643 94.0057H128.369ZM121.8 88.1132C125.525 88.1132 128.369 90.8568 128.369 94.0057H130.643C130.643 89.3986 126.574 85.832 121.8 85.832V88.1132ZM49.1822 88.1132H121.8V85.832H49.1822V88.1132ZM42.6128 94.0057C42.6128 90.8568 45.457 88.1132 49.1822 88.1132V85.832C44.4084 85.832 40.3389 89.3986 40.3389 94.0057H42.6128ZM65.1878 127.066H137.805V124.784H65.1878V127.066ZM58.6184 132.958C58.6184 129.809 61.4629 127.066 65.1878 127.066V124.784C60.4143 124.784 56.3444 128.351 56.3444 132.958H58.6184ZM65.1878 138.851C61.4629 138.851 58.6184 136.107 58.6184 132.958H56.3444C56.3444 137.565 60.4143 141.132 65.1878 141.132V138.851ZM101.26 138.851H65.1878V141.132H101.26V138.851ZM136.917 125.326C122.721 125.326 109.832 130.605 100.494 139.149L102.026 140.834C110.942 132.677 123.284 127.607 136.917 127.607V125.326ZM141.255 125.494C139.826 125.385 138.379 125.326 136.917 125.326V127.607C138.318 127.607 139.706 127.664 141.082 127.769L141.255 125.494ZM137.805 127.066C138.839 127.066 139.826 127.285 140.71 127.675L141.627 125.588C140.459 125.072 139.16 124.784 137.805 124.784V127.066ZM65.1878 146.542H96.1956V144.261H65.1878V146.542ZM58.6184 152.435C58.6184 149.286 61.4626 146.542 65.1878 146.542V144.261C60.4139 144.261 56.3444 147.827 56.3444 152.435H58.6184ZM65.1878 158.327C61.4625 158.327 58.6184 155.584 58.6184 152.435H56.3444C56.3444 157.042 60.414 160.608 65.1878 160.608V158.327ZM88.577 158.327H65.1878V160.608H88.577V158.327ZM95.3087 144.687C91.8619 148.997 89.1923 153.864 87.4955 159.116L89.6589 159.819C91.2666 154.843 93.7997 150.219 97.0824 146.115L95.3087 144.687ZM65.1878 166.018H87.2162V163.737H65.1878V166.018ZM58.6184 171.91C58.6184 168.761 61.4625 166.018 65.1878 166.018V163.737C60.414 163.737 56.3444 167.303 56.3444 171.91H58.6184ZM65.1878 177.803C61.4625 177.803 58.6184 175.06 58.6184 171.91H56.3444C56.3444 176.518 60.414 180.084 65.1878 180.084V177.803ZM87.0334 177.803H65.1878V180.084H87.0334V177.803ZM85.3916 172.452C85.3916 174.716 85.5713 176.942 85.9096 179.12L88.1567 178.768C87.8357 176.703 87.6656 174.595 87.6656 172.452H85.3916ZM86.0979 164.672C85.6359 167.203 85.3916 169.802 85.3916 172.452H87.6656C87.6656 169.943 87.8971 167.482 88.3346 165.083L86.0979 164.672ZM65.1878 197.279C61.4625 197.279 58.6184 194.536 58.6184 191.387H56.3444C56.3444 195.994 60.414 199.561 65.1878 199.561V197.279ZM95.3551 197.279H65.1878V199.561H95.3551V197.279ZM87.153 184.676C88.6888 189.903 91.1824 194.768 94.4474 199.107L96.2624 197.733C93.1549 193.603 90.7891 188.982 89.3342 184.031L87.153 184.676ZM65.1878 185.494H88.2436V183.213H65.1878V185.494ZM58.6184 191.387C58.6184 188.238 61.4625 185.494 65.1878 185.494V183.213C60.414 183.213 56.3444 186.78 56.3444 191.387H58.6184ZM136.917 211.887C112.926 211.887 93.5937 194.096 93.5937 172.452H91.3198C91.3198 195.554 111.877 214.168 136.917 214.168V211.887ZM180.239 172.452C180.239 194.096 160.907 211.887 136.917 211.887V214.168C161.956 214.168 182.513 195.554 182.513 172.452H180.239ZM136.917 133.017C160.907 133.017 180.239 150.808 180.239 172.452H182.513C182.513 149.349 161.956 130.736 136.917 130.736V133.017ZM93.5937 172.452C93.5937 150.808 112.926 133.017 136.917 133.017V130.736C111.877 130.736 91.3198 149.349 91.3198 172.452H93.5937ZM136.902 168.026C133.101 168.026 130.493 165.624 130.493 163.206H128.219C128.219 167.362 132.382 170.307 136.902 170.307V168.026ZM152.446 181.389C152.446 173.848 145.288 168.026 136.902 168.026V170.307C144.404 170.307 150.172 175.451 150.172 181.389H152.446ZM140.563 194.375C147.24 192.986 152.446 187.801 152.446 181.389H150.172C150.172 186.45 146.011 190.912 140.102 192.141L140.563 194.375ZM141.47 194.61V193.258H139.196V194.61H141.47ZM136.902 198.881C139.321 198.881 141.47 197.068 141.47 194.61H139.196C139.196 195.61 138.272 196.6 136.902 196.6V198.881ZM132.335 194.61C132.335 197.068 134.484 198.881 136.902 198.881V196.6C135.532 196.6 134.609 195.61 134.609 194.61H132.335ZM132.335 193.258V194.61H134.609V193.258H132.335ZM121.359 181.389C121.359 187.801 126.564 192.986 133.241 194.375L133.703 192.141C127.794 190.912 123.633 186.45 123.633 181.389H121.359ZM125.926 177.118C123.507 177.118 121.359 178.931 121.359 181.389H123.633C123.633 180.389 124.556 179.399 125.926 179.399V177.118ZM130.493 181.389C130.493 178.931 128.344 177.118 125.926 177.118V179.399C127.296 179.399 128.219 180.389 128.219 181.389H130.493ZM136.902 186.209C133.101 186.209 130.493 183.807 130.493 181.389H128.219C128.219 185.545 132.382 188.491 136.902 188.491V186.209ZM143.312 181.389C143.312 183.807 140.704 186.209 136.902 186.209V188.491C141.423 188.491 145.585 185.545 145.585 181.389H143.312ZM136.902 176.568C140.704 176.568 143.312 178.971 143.312 181.389H145.585C145.585 177.233 141.423 174.287 136.902 174.287V176.568ZM121.359 163.206C121.359 170.747 128.517 176.568 136.902 176.568V174.287C129.4 174.287 123.633 169.143 123.633 163.206H121.359ZM133.241 150.22C126.564 151.609 121.359 156.794 121.359 163.206H123.633C123.633 158.145 127.794 153.683 133.703 152.454L133.241 150.22ZM132.335 149.708V151.337H134.609V149.708H132.335ZM136.902 145.438C134.484 145.438 132.335 147.251 132.335 149.708H134.609C134.609 148.709 135.532 147.719 136.902 147.719V145.438ZM141.47 149.708C141.47 147.251 139.321 145.438 136.902 145.438V147.719C138.272 147.719 139.196 148.709 139.196 149.708H141.47ZM141.47 151.337V149.708H139.196V151.337H141.47ZM152.446 163.206C152.446 156.794 147.24 151.609 140.563 150.22L140.102 152.454C146.011 153.683 150.172 158.145 150.172 163.206H152.446ZM147.879 167.477C150.298 167.477 152.446 165.664 152.446 163.206H150.172C150.172 164.205 149.249 165.196 147.879 165.196V167.477ZM143.312 163.206C143.312 165.664 145.46 167.477 147.879 167.477V165.196C146.509 165.196 145.585 164.205 145.585 163.206H143.312ZM136.902 158.385C140.704 158.385 143.312 160.788 143.312 163.206H145.585C145.585 159.05 141.423 156.104 136.902 156.104V158.385ZM130.493 163.206C130.493 160.788 133.101 158.385 136.902 158.385V156.104C132.382 156.104 128.219 159.05 128.219 163.206H130.493Z" fill="#FF872C"/>
<path d="M272.183 149.562C272.183 168.177 284.517 180.769 300.561 180.769C311.476 180.769 319.226 174.966 322.828 168.505V181.098C322.828 193.909 314.86 200.698 304.272 200.698C294.449 200.698 287.354 195.771 285.171 188.544H275.348C277.313 201.355 288.555 209.349 304.272 209.349C321.845 209.349 332.87 197.632 332.87 181.098V119.778H322.828V130.728C319.335 124.267 311.476 118.792 300.561 118.792C284.517 118.792 272.183 130.837 272.183 149.562ZM322.828 149.671C322.828 163.797 313.441 172.009 302.526 172.009C291.611 172.009 282.334 163.687 282.334 149.562C282.334 135.436 291.611 127.443 302.526 127.443C313.441 127.443 322.828 135.765 322.828 149.671Z" fill="white"/>
<path d="M406.412 149.671C406.412 130.728 393.205 118.792 376.178 118.792C359.26 118.792 345.943 130.728 345.943 149.671C345.943 168.724 358.823 180.769 375.741 180.769C392.768 180.769 406.412 168.724 406.412 149.671ZM356.094 149.671C356.094 134.56 365.59 127.443 376.069 127.443C386.329 127.443 396.261 134.56 396.261 149.671C396.261 164.892 386.11 172.009 375.741 172.009C365.372 172.009 356.094 164.892 356.094 149.671Z" fill="white"/>
<path d="M425.184 179.784H437.736V129.633H448.869V119.449H437.736V115.179C437.736 108.28 440.355 105.652 447.996 105.652V95.25C432.278 95.25 425.184 101.272 425.184 115.179V119.449H418.089V129.633H425.184V179.784Z" fill="white"/>
<path d="M459.897 179.784H472.34V119.449H459.897V179.784ZM466.227 111.456C470.593 111.456 474.086 107.952 474.086 103.462C474.086 98.973 470.593 95.469 466.227 95.469C461.752 95.469 458.259 98.973 458.259 103.462C458.259 107.952 461.752 111.456 466.227 111.456Z" fill="white"/>
<path d="M531.352 179.784H543.686V144.196C543.686 127.333 533.099 118.464 519.019 118.464C511.815 118.464 505.157 121.42 501.118 126.348V119.449H488.675V179.784H501.118V146.058C501.118 134.998 507.121 129.304 516.29 129.304C525.349 129.304 531.352 134.998 531.352 146.058V179.784Z" fill="white"/>
<path d="M555.411 149.343C555.411 167.958 567.963 180.769 583.571 180.769C593.613 180.769 600.817 175.951 604.637 170.805V179.784H617.189V119.449H604.637V128.209C600.926 123.282 593.94 118.464 583.789 118.464C567.963 118.464 555.411 130.728 555.411 149.343ZM604.637 149.562C604.637 162.592 595.796 169.929 586.409 169.929C577.131 169.929 568.181 162.373 568.181 149.343C568.181 136.312 577.131 129.304 586.409 129.304C595.796 129.304 604.637 136.641 604.637 149.562Z" fill="white"/>
<path d="M676.211 179.784H688.545V144.196C688.545 127.333 677.958 118.464 663.877 118.464C656.674 118.464 650.015 121.42 645.977 126.348V119.449H633.534V179.784H645.977V146.058C645.977 134.998 651.98 129.304 661.149 129.304C670.208 129.304 676.211 134.998 676.211 146.058V179.784Z" fill="white"/>
<path d="M700.27 149.562C700.27 168.505 712.494 180.769 729.74 180.769C744.475 180.769 754.08 172.557 757.463 160.731H744.038C741.746 166.972 737.162 170.257 729.74 170.257C719.698 170.257 713.04 162.811 713.04 149.562C713.04 136.422 719.698 128.976 729.74 128.976C737.162 128.976 741.964 132.699 744.038 138.502H757.463C754.08 125.8 744.475 118.464 729.74 118.464C712.494 118.464 700.27 130.728 700.27 149.562Z" fill="white"/>
<path d="M795.184 128.976C804.461 128.976 811.774 134.889 811.992 144.196H778.702C780.012 134.67 786.779 128.976 795.184 128.976ZM823.344 161.826H809.919C807.626 166.534 803.37 170.257 795.729 170.257C786.561 170.257 779.466 164.235 778.593 154.27H824.545C824.872 152.19 824.981 150.219 824.981 148.138C824.981 130.399 812.866 118.464 795.729 118.464C777.938 118.464 765.713 130.618 765.713 149.562C765.713 168.505 778.484 180.769 795.729 180.769C810.464 180.769 819.96 172.338 823.344 161.826Z" fill="white"/>
<path d="M882.089 162.921C881.434 141.13 847.489 147.919 847.489 135.765C847.489 131.713 850.981 128.976 857.64 128.976C864.407 128.976 868.445 132.589 868.882 137.845H881.325C880.67 125.8 871.72 118.464 858.076 118.464C843.887 118.464 834.936 126.238 834.936 135.874C834.936 157.993 869.864 151.204 869.864 163.03C869.864 167.191 866.044 170.257 858.84 170.257C851.964 170.257 847.27 166.206 846.834 161.278H833.954C834.5 172.228 844.651 180.769 859.058 180.769C873.248 180.769 882.089 173.104 882.089 162.921Z" fill="white"/>
<defs>
<filter id="filter0_d" x="0" y="0" width="1208" height="308" filterUnits="userSpaceOnUse" color-interpolation-filters="sRGB">
<feFlood flood-opacity="0" result="BackgroundImageFix"/>
<feColorMatrix in="SourceAlpha" type="matrix" values="0 0 0 0 0 0 0 0 0 0 0 0 0 0 0 0 0 0 127 0"/>
<feOffset dy="4"/>
<feGaussianBlur stdDeviation="2"/>
<feColorMatrix type="matrix" values="0 0 0 0 0 0 0 0 0 0 0 0 0 0 0 0 0 0 0.25 0"/>
<feBlend mode="normal" in2="BackgroundImageFix" result="effect1_dropShadow"/>
<feBlend mode="normal" in="SourceGraphic" in2="effect1_dropShadow" result="shape"/>
</filter>
</defs>
</svg>
